<svg width="22" height="19" viewBox="0 0 22 19" fill="none" xmlns="http://www.w3.org/2000/svg">
<path d="M6.59998 0.300049C5.99998 0.300049 5.59998 0.700049 5.59998 1.30005V3.90005C5.59998 4.50005 5.99998 4.90005 6.59998 4.90005C7.19998 4.90005 7.59998 4.50005 7.59998 3.90005V1.30005C7.59998 0.800049 7.19998 0.300049 6.59998 0.300049Z" fill="white"/>
<path d="M15.4 0.300049C14.8 0.300049 14.4 0.700049 14.4 1.30005V3.90005C14.4 4.50005 14.8 4.90005 15.4 4.90005C16 4.90005 16.4 4.50005 16.4 3.90005V1.30005C16.4 0.800049 16 0.300049 15.4 0.300049Z" fill="white"/>
<path d="M8.59998 2.6001H13.4" stroke="white" stroke-width="1.5" stroke-miterlimit="10"/>
<path d="M17.4 2.6001H20C20.6 2.6001 21 3.1001 21 3.6001V16.3001C21 16.8001 20.6 17.3001 20 17.3001H2C1.4 17.3001 1 16.8001 1 16.3001V3.6001C1 3.1001 1.4 2.6001 2 2.6001H4.6" stroke="white" stroke-width="1.5" stroke-miterlimit="10"/>
<path d="M12 15H10C9.7 15 9.5 14.8 9.5 14.5V12.5C9.5 12.2 9.7 12 10 12H12C12.3 12 12.5 12.2 12.5 12.5V14.5C12.5 14.8 12.3 15 12 15Z" stroke="white" stroke-width="0.5" stroke-miterlimit="10"/>
<path d="M5.5 15H3.5C3.2 15 3 14.8 3 14.5V12.5C3 12.2 3.2 12 3.5 12H5.5C5.8 12 6 12.3 6 12.5V14.5C6 14.8 5.8 15 5.5 15Z" stroke="white" stroke-width="0.5" stroke-miterlimit="10"/>
<path d="M18.5 15H16.5C16.2 15 16 14.8 16 14.5V12.5C16 12.2 16.2 12 16.5 12H18.5C18.8 12 19 12.2 19 12.5V14.5C19 14.8 18.8 15 18.5 15Z" stroke="white" stroke-width="0.5" stroke-miterlimit="10"/>
<path d="M12 10H10C9.7 10 9.5 9.8 9.5 9.5V7.5C9.5 7.2 9.7 7 10 7H12C12.3 7 12.5 7.2 12.5 7.5V9.5C12.5 9.8 12.3 10 12 10Z" stroke="white" stroke-width="0.5" stroke-miterlimit="10"/>
<path d="M5.5 10H3.5C3.2 10 3 9.8 3 9.5V7.5C3 7.2 3.2 7 3.5 7H5.5C5.8 7 6 7.2 6 7.5V9.5C6 9.8 5.8 10 5.5 10Z" stroke="white" stroke-width="0.5" stroke-miterlimit="10"/>
<path d="M16.8 8.30009L17.5 9.30009L19.5 7.1001" stroke="white" stroke-width="0.5" stroke-miterlimit="10" stroke-linecap="round" stroke-linejoin="round"/>
<path d="M18.5 7H16.5C16.2 7 16 7.2 16 7.5V9.5C16 9.8 16.2 10 16.5 10H18.5C18.8 10 19 9.8 19 9.5V8.6" stroke="white" stroke-width="0.5" stroke-miterlimit="10" stroke-linecap="round"/>
</svg>
