<svg width="20" height="18" viewBox="0 0 20 18" fill="none" xmlns="http://www.w3.org/2000/svg">
<path d="M19 17.3H1L0.5 16.8V7.90005L0.700001 7.50005L3.8 5.40005L4.1 5.30005H15.1L15.3 5.40005L19.2 7.50005L19.5 7.90005V16.8L19 17.3ZM1.5 16.3H18.5V8.20005L15 6.30005H4.2L1.5 8.20005V16.3Z" fill="white"/>
<path d="M16.8051 16.8411L16.8051 1.84106L3.20505 1.84106L3.20505 16.8411H16.8051Z" fill="white"/>
<path d="M16.9 16.9999H3.09998V1.69995H17V16.9999H16.9ZM3.29998 16.7H16.7V1.89995H3.29998V16.7Z" fill="white"/>
<path d="M6.49992 1H5.79993V1.3H6.49992V1Z" fill="white"/>
<path d="M16.1 1.19995H13.5V1.49995H16.1V1.19995Z" fill="white"/>
<path d="M5.79998 1.30005H4.09998V1.60005H5.79998V1.30005Z" fill="white"/>
<path d="M15.1 0.699951H5.09998V0.99995H15.1V0.699951Z" fill="white"/>
<path d="M19 7.80005H13V10.8H7V7.80005H1V16.8H19V7.80005Z" fill="#003694"/>
<path d="M19 17.3H1L0.5 16.8V7.80005L1 7.30005H7L7.5 7.80005V10.3H12.5V7.80005L13 7.30005H19L19.5 7.80005V16.8L19 17.3ZM1.5 16.3H18.5V8.30005H13.5V10.8L13 11.3H7L6.5 10.8V8.30005H1.5V16.3Z" fill="white"/>
</svg>
