<svg width="20" height="22" viewBox="0 0 20 22" fill="none" xmlns="http://www.w3.org/2000/svg">
<path d="M14.5 20.3C14.4 20.3 14.3 20.3 14.2 20.3L2 19.3C1.5 19.3 1 18.9 1 18.3V2.30005C1 1.80005 1.4 1.30005 2 1.30005L14.3 2.30005C14.4 2.30005 14.5 2.30005 14.6 2.30005L19 1.30005V19.3L14.5 20.3Z" stroke="white" stroke-width="1.5" stroke-miterlimit="10"/>
<path d="M9.59998 13.9001L9.09998 5.50014C9.09998 4.90014 9.49998 4.50015 9.99998 4.40015C10.6 4.40015 11 4.80015 11.1 5.30015V5.40015L10.6 13.8001C10.6 14.1001 10.4 14.3001 10.1 14.3001C9.79998 14.4001 9.59998 14.2001 9.59998 13.9001Z" fill="white"/>
<path d="M10.1 18.4001C10.9284 18.4001 11.6 17.7286 11.6 16.9001C11.6 16.0717 10.9284 15.4001 10.1 15.4001C9.27155 15.4001 8.59998 16.0717 8.59998 16.9001C8.59998 17.7286 9.27155 18.4001 10.1 18.4001Z" fill="white"/>
</svg>
