<svg width="19" height="19" viewBox="0 0 19 19" fill="none" xmlns="http://www.w3.org/2000/svg">
<path d="M8.3 17.3L17.3 8.3C17.5 8.1 17.6 7.9 17.6 7.6V2C17.6 1.5 17.2 1 16.6 1H11C10.7 1 10.5 1.1 10.3 1.3L1.3 10.3C0.9 10.7 0.9 11.3 1.3 11.7L6.9 17.3C7.3 17.7 7.9 17.7 8.3 17.3Z" stroke="white" stroke-width="1.5" stroke-miterlimit="10"/>
<path d="M14.1 6.1001C14.9284 6.1001 15.6 5.42852 15.6 4.6001C15.6 3.77167 14.9284 3.1001 14.1 3.1001C13.2715 3.1001 12.6 3.77167 12.6 4.6001C12.6 5.42852 13.2715 6.1001 14.1 6.1001Z" stroke="white" stroke-miterlimit="10"/>
</svg>
