<svg width="20" height="20" viewBox="0 0 20 20" fill="none" xmlns="http://www.w3.org/2000/svg">
<path d="M15.0922 6.74742L15.0924 6.74716C15.2208 6.5897 15.2821 6.38803 15.2631 6.18573C15.244 5.98343 15.1461 5.79676 14.9905 5.66607C14.8349 5.53538 14.6341 5.47116 14.4316 5.4873C14.229 5.50344 14.041 5.59864 13.9081 5.75232L13.9078 5.75258L8.17877 12.5715L6.07419 10.2332C6.07412 10.2331 6.07406 10.233 6.074 10.2329C6.00688 10.1548 5.92483 10.0909 5.83268 10.045C5.74044 9.99895 5.63993 9.97184 5.53707 9.96522C5.4342 9.9586 5.33105 9.97262 5.23367 10.0064C5.1363 10.0403 5.04667 10.0932 4.97004 10.1621C4.89342 10.2311 4.83136 10.3147 4.78749 10.408C4.74363 10.5012 4.71886 10.6023 4.71463 10.7053C4.7104 10.8083 4.72681 10.9111 4.76288 11.0077C4.79891 11.1042 4.85386 11.1925 4.92449 11.2675C4.92455 11.2675 4.92461 11.2676 4.92467 11.2676L7.62429 14.2672C7.69679 14.3478 7.78542 14.4123 7.88444 14.4564C7.98346 14.5006 8.09065 14.5234 8.19905 14.5234L8.21172 14.5234L8.21209 14.5234C8.32291 14.5217 8.43206 14.4961 8.53214 14.4485C8.63222 14.4009 8.7209 14.3323 8.79217 14.2474L15.0922 6.74742ZM1.14621 1.14621C1.70424 0.58818 2.46085 0.274299 3.25003 0.273437L16.75 0.273438C17.5392 0.274299 18.2958 0.58818 18.8538 1.14621C19.4118 1.70424 19.7257 2.46085 19.7266 3.25V16.75C19.7257 17.5392 19.4118 18.2958 18.8538 18.8538C18.2958 19.4118 17.5392 19.7257 16.75 19.7266H3.25003C2.46085 19.7257 1.70424 19.4118 1.14621 18.8538C0.58818 18.2958 0.274299 17.5392 0.273437 16.75L0.273438 3.25001C0.274303 2.46084 0.588183 1.70424 1.14621 1.14621Z" fill="#003694" stroke="#313131" stroke-width="0.046875"/>
</svg>
