<svg width="16" height="12" viewBox="0 0 16 12" fill="none" xmlns="http://www.w3.org/2000/svg">
<path d="M8 8C9.10457 8 10 7.10457 10 6C10 4.89543 9.10457 4 8 4C6.89543 4 6 4.89543 6 6C6 7.10457 6.89543 8 8 8Z" fill="#AFAFAF"/>
<path fill-rule="evenodd" clip-rule="evenodd" d="M0.882274 5.63113C1.87378 2.65047 4.68527 0.5 8.00035 0.5C11.3139 0.5 14.1243 2.64848 15.117 5.62697C15.1973 5.86768 15.1973 6.12812 15.1172 6.36887C14.1257 9.34953 11.3142 11.5 7.99918 11.5C4.68565 11.5 1.87522 9.35153 0.882492 6.37303C0.802265 6.13233 0.802188 5.87188 0.882274 5.63113ZM11.5 6C11.5 7.933 9.933 9.5 8 9.5C6.067 9.5 4.5 7.933 4.5 6C4.5 4.067 6.067 2.5 8 2.5C9.933 2.5 11.5 4.067 11.5 6Z" fill="#AFAFAF"/>
</svg>
