<svg width="16" height="14" viewBox="0 0 16 14" fill="none" xmlns="http://www.w3.org/2000/svg">
<path d="M2.35355 0.646447C2.15829 0.451184 1.84171 0.451184 1.64645 0.646447C1.45118 0.841709 1.45118 1.15829 1.64645 1.35355L13.6464 13.3536C13.8417 13.5488 14.1583 13.5488 14.3536 13.3536C14.5488 13.1583 14.5488 12.8417 14.3536 12.6464L2.35355 0.646447Z" fill="#AFAFAF"/>
<path d="M15.1172 7.36887C14.7546 8.45913 14.1484 9.43832 13.3631 10.2418L11.2975 8.17615C11.4286 7.80857 11.5 7.41262 11.5 7C11.5 5.067 9.933 3.5 8 3.5C7.58738 3.5 7.19143 3.5714 6.82385 3.70253L5.17265 2.05133C6.04522 1.69587 6.99985 1.5 8.00035 1.5C11.3139 1.5 14.1243 3.64848 15.117 6.62697C15.1973 6.86768 15.1973 7.12812 15.1172 7.36887Z" fill="#AFAFAF"/>
<path d="M10.5 7C10.5 7.12011 10.4915 7.23824 10.4752 7.35383L7.64617 4.52485C7.76176 4.50847 7.87989 4.5 8 4.5C9.38071 4.5 10.5 5.61929 10.5 7Z" fill="#AFAFAF"/>
<path d="M8.35383 9.47515L5.52485 6.64617C5.50847 6.76176 5.5 6.87989 5.5 7C5.5 8.38071 6.61929 9.5 8 9.5C8.12011 9.5 8.23824 9.49153 8.35383 9.47515Z" fill="#AFAFAF"/>
<path d="M4.5 7C4.5 6.58738 4.5714 6.19143 4.70253 5.82385L2.63662 3.75794C1.85124 4.56148 1.24498 5.54076 0.882274 6.63113C0.802188 6.87188 0.802265 7.13233 0.882492 7.37303C1.87522 10.3515 4.68565 12.5 7.99918 12.5C8.9998 12.5 9.95455 12.3041 10.8272 11.9485L9.17615 10.2975C8.80857 10.4286 8.41262 10.5 8 10.5C6.067 10.5 4.5 8.933 4.5 7Z" fill="#AFAFAF"/>
</svg>
