<svg width="32" height="29" viewBox="0 0 32 29" fill="none" xmlns="http://www.w3.org/2000/svg">
<path d="M10.4 24.95L6.55 28.7999C2.55 25.9 0 21.2 0 15.9C0 13.4 0.549999 11.05 1.55 8.94995L4.7 12.1L5.7 13.1C5.45 14 5.35 14.9 5.35 15.85C5.35 19.7 7.35 23.05 10.4 24.95Z" fill="#F7CB15"/>
<path d="M32 15.85C32 21.15 29.4 25.85 25.45 28.75L21.6 24.9C24.65 23 26.65 19.65 26.65 15.8C26.65 13.75 26.05 11.8 25.05 10.15C23.9 8.3 22.2 6.85 20.15 5.95L24.1 2C28.85 4.85 32 10 32 15.85Z" fill="#F7CB15"/>
<path d="M23.55 1.75C23.55 1.75 9.89998 15.4 9.84998 15.45C9.74998 15.55 9.59997 15.6 9.39997 15.6C9.24997 15.6 9.09998 15.55 8.94998 15.45L1.84998 8.35C2.59998 6.95 3.54997 5.7 4.64997 4.6L4.69998 4.55L4.74998 4.5C4.84998 4.4 4.99998 4.35 5.19998 4.35C5.39998 4.35 5.54997 4.4 5.64997 4.55L10.95 9.85C11 9.85 11 9.9 11.05 9.9C11.1 9.9 11.1 9.9 11.15 9.85C11.15 9.85 11.2 9.85 11.2 9.8C11.2 9.75 11.25 9.75 11.25 9.7C11.25 9.65 11.25 9.65 11.2 9.6C11.2 9.6 11.2 9.55 11.15 9.55L9.79998 8.2C9.74998 8.15 9.74998 8.15 9.74998 8.1C9.74998 8.05 9.74998 8.05 9.79998 8L17.55 0.2C17.65 0.05 17.85 0 18.05 0C18.1 0 18.15 0 18.2 0C20.1 0.25 21.9 0.85 23.55 1.75Z" fill="#003694"/>
</svg>
