<svg width="200" height="177" viewBox="0 0 200 177" fill="none" xmlns="http://www.w3.org/2000/svg">
<path d="M49.9188 170.463C48.5373 170.463 47.8466 169.755 47.1558 169.047L20.9071 131.543C19.5256 130.127 20.2163 128.004 21.5978 126.589C22.9794 125.174 25.0516 125.882 26.4331 127.297L52.6818 164.802C54.0633 166.217 53.3726 168.34 51.9911 169.755C51.3003 170.463 50.6096 170.463 49.9188 170.463Z" fill="#003694"/>
<path d="M55.9027 131.256C54.4279 131.256 53.6905 130.519 52.9531 129.781L34.5182 103.972C33.0435 102.498 33.7808 100.286 35.2556 98.8107C36.7304 97.3359 38.9426 98.0733 40.4174 99.5481L59.5896 125.357C61.0644 126.832 60.327 129.044 58.8522 130.519C58.1148 131.256 56.64 131.256 55.9027 131.256Z" fill="#F7CB15"/>
<path d="M97.1969 143.792C95.7222 143.792 94.9848 143.054 94.2474 142.317L48.529 77.4263C47.0542 75.9515 47.7916 73.7393 49.2664 73.002C51.4786 71.5272 53.6907 71.5272 54.4281 73.7394L100.147 138.63C101.621 140.105 100.884 142.317 99.4091 143.792C98.6717 143.792 97.9343 143.792 97.1969 143.792Z" fill="#003694"/>
<path d="M10.9218 176.974C7.23485 176.974 4.28528 175.5 2.0731 172.55C-0.139081 169.6 -0.876475 165.176 1.33571 161.489L54.428 58.2541C55.9028 54.5671 58.8524 52.3549 62.5394 52.3549C66.2263 52.3549 69.9133 53.8297 72.1255 56.7793L134.067 140.105C136.279 143.054 137.016 146.741 135.541 150.428C134.067 154.115 131.117 156.327 127.43 157.065L12.3966 176.974C11.6592 176.974 10.9218 176.974 10.9218 176.974ZM7.97225 164.439C7.23485 165.914 7.97225 167.388 7.97225 168.126C7.97225 168.863 9.44703 169.6 10.9218 169.6L125.218 150.428C126.693 150.428 127.43 148.953 127.43 148.216C127.43 147.479 128.167 146.004 126.693 145.267L66.2263 61.2036C65.4889 59.7289 64.0142 59.7289 63.2768 59.7289C62.5394 59.7289 61.0646 59.7289 60.3272 61.2036L7.97225 164.439Z" fill="#003694"/>
<path d="M198.957 138.63C198.22 138.63 197.483 138.63 196.745 137.893C186.422 121.67 174.623 112.821 161.35 110.609C141.441 108.397 125.218 123.145 124.481 123.145C123.743 123.882 122.268 123.882 121.531 123.145C120.794 122.407 120.794 120.933 121.531 120.195C122.268 119.458 139.966 103.235 161.35 106.185C176.098 108.397 188.634 117.983 199.695 134.943C200.432 135.68 199.695 137.155 198.957 137.893C200.432 138.63 199.695 138.63 198.957 138.63Z" fill="#003694"/>
<path d="M87.6109 72.2646C86.8735 72.2646 85.3987 71.5272 85.3987 70.0524C85.3987 68.5776 86.1361 67.8402 87.6109 67.8402C87.6109 67.8402 109.733 64.1532 120.056 47.1932C126.693 36.1323 127.43 20.647 120.794 2.94957C120.056 1.47479 120.794 0.737394 122.268 0C123.743 0 125.218 0 125.218 1.47479C131.854 20.647 131.854 36.8697 123.743 49.4054C112.682 68.5776 89.0856 72.2646 87.6109 72.2646Z" fill="#003694"/>
<path d="M108.258 91.4368C107.52 91.4368 106.783 91.4368 106.783 90.6994C106.046 89.962 106.046 88.4872 106.783 87.7498C113.42 81.1133 120.793 77.4263 128.167 75.2141C134.804 73.7394 139.228 74.4767 143.653 74.4767C148.077 75.2141 151.027 75.2141 154.714 73.002C158.401 70.7898 159.138 68.5776 161.35 64.8906C162.825 61.2037 165.037 57.5167 170.199 53.8297C174.623 50.8802 180.522 50.1428 186.422 50.1428C187.896 50.1428 188.634 50.8802 188.634 52.3549C188.634 53.8297 187.896 54.5671 186.422 54.5671C181.26 54.5671 176.098 55.3045 172.411 57.5167C167.987 59.7289 166.512 63.4158 165.037 66.3654C163.562 70.0524 161.35 73.002 156.926 75.9515C151.764 78.9011 147.34 78.9011 142.915 78.1637C139.228 78.1637 134.804 77.4263 128.905 78.9011C122.268 80.3759 115.632 84.0629 109.733 89.962C109.733 91.4368 108.995 91.4368 108.258 91.4368Z" fill="#F7CB15"/>
<path d="M80.9743 49.4054C73.6003 49.4054 67.7012 43.5062 67.7012 36.1323C67.7012 28.7583 73.6003 22.8592 80.9743 22.8592C88.3482 22.8592 94.2473 28.7583 94.2473 36.1323C94.2473 43.5062 88.3482 49.4054 80.9743 49.4054ZM80.9743 27.2836C75.8125 27.2836 72.1255 30.9705 72.1255 36.1323C72.1255 41.294 75.8125 44.981 80.9743 44.981C86.136 44.981 89.823 41.294 89.823 36.1323C89.823 30.9705 86.136 27.2836 80.9743 27.2836Z" fill="#F7CB15"/>
<path d="M156.188 142.317C151.027 142.317 146.602 137.893 146.602 132.731C146.602 127.569 151.027 123.145 156.188 123.145C161.35 123.145 165.775 127.569 165.775 132.731C165.775 137.893 161.35 142.317 156.188 142.317ZM156.188 127.569C153.239 127.569 151.027 129.781 151.027 132.731C151.027 135.68 153.239 137.893 156.188 137.893C159.138 137.893 161.35 135.68 161.35 132.731C161.35 129.781 159.138 127.569 156.188 127.569Z" fill="#F7CB15"/>
<path d="M171.674 92.9116C167.249 92.9116 164.3 89.2246 164.3 85.5376C164.3 81.8507 167.987 78.1637 171.674 78.1637C175.361 78.1637 179.048 81.8507 179.048 85.5376C179.048 89.2246 176.098 92.9116 171.674 92.9116ZM171.674 81.8507C170.199 81.8507 167.987 83.3255 167.987 85.5376C167.987 87.7498 169.462 89.2246 171.674 89.2246C173.886 89.2246 175.361 87.7498 175.361 85.5376C175.361 83.3255 173.886 81.8507 171.674 81.8507Z" fill="#003694"/>
<path d="M141.441 19.1722C138.491 19.1722 135.542 16.2226 135.542 13.273C135.542 10.3235 138.491 7.3739 141.441 7.3739C144.39 7.3739 147.34 10.3235 147.34 13.273C147.34 16.2226 145.128 19.1722 141.441 19.1722ZM141.441 11.7983C140.703 11.7983 139.966 12.5357 139.966 13.273C139.966 14.7478 142.915 14.7478 142.915 13.273C142.915 12.5357 142.178 11.7983 141.441 11.7983Z" fill="#003694"/>
</svg>
