<svg width="22" height="22" viewBox="0 0 22 22" fill="none" xmlns="http://www.w3.org/2000/svg">
<path d="M20.1428 9.47623H12.5237V1.85718C12.5237 0.942898 11.9142 0.333374 10.9999 0.333374C10.0856 0.333374 9.47611 0.942898 9.47611 1.85718V9.47623H1.85706C0.942776 9.47623 0.333252 10.0858 0.333252 11C0.333252 11.9143 0.942776 12.5238 1.85706 12.5238H9.47611V20.1429C9.47611 21.0572 10.0856 21.6667 10.9999 21.6667C11.9142 21.6667 12.5237 21.0572 12.5237 20.1429V12.5238H20.1428C21.0571 12.5238 21.6666 11.9143 21.6666 11C21.6666 10.0858 20.7523 9.47623 20.1428 9.47623Z" fill="#001427"/>
</svg>
