<svg width="118" height="190" viewBox="0 0 118 190" fill="none" xmlns="http://www.w3.org/2000/svg">
<path d="M101.918 190H16.0818C7.2368 190 0 182.421 0 173.158V170.842C0 161.579 7.2368 154 16.0818 154H118V173.158C118 182.632 110.763 190 101.918 190Z" fill="#F7CB15"/>
<path d="M20.0707 172.947L13 171.895L14.8182 165.789L21.0808 169.368L19.6667 162H26.1313L24.7172 169.368L30.9798 165.789L33 171.895L25.7273 172.737L30.9798 177.789L26.1313 182L23.101 175.263L19.8687 182L14.8182 178.211L20.0707 172.947Z" fill="#003694"/>
<path d="M44.1429 172.851L37 171.787L38.8367 165.617L45.1633 169.234L43.9388 162H50.0612L48.6327 169.447L54.9592 165.83L57 172L49.6531 172.851L54.9592 177.957L50.0612 182L47 175.191L43.9388 182L38.8367 178.17L44.1429 172.851Z" fill="#003694"/>
<path d="M68.1429 172.851L61 171.787L62.8367 165.617L69.1633 169.234L67.7347 162H74.0612L72.6327 169.447L78.9592 165.83L81 172L73.8572 172.851L79.1633 177.957L74.0612 182L71 175.191L67.9388 182L62.8367 178.17L68.1429 172.851Z" fill="#003694"/>
<path d="M105 181.105H85V176.105H105V181.105Z" fill="#003694"/>
<path d="M110.562 69.6774H82.4191V21.8121C82.4191 9.69425 71.9659 0 58.8995 0C45.8331 0 35.5809 9.69425 35.5809 21.8121V49.2791C35.5809 52.1066 37.7922 54.3282 40.6065 54.3282C43.4208 54.3282 45.632 52.1066 45.632 49.2791V21.8121C45.632 15.3492 51.6627 10.0982 59.1005 10.0982C66.5383 10.0982 72.569 15.3492 72.569 21.8121V69.8794H7.43782C3.41738 69.8794 0 73.1108 0 77.352V136.527C0 140.567 3.21635 144 7.43782 144H110.562C114.583 144 118 140.769 118 136.527V77.1501C118 73.1108 114.583 69.6774 110.562 69.6774ZM61.3118 110.676V122.39C61.3118 123.602 60.3066 124.611 59.1005 124.611C57.8944 124.611 56.8893 123.602 56.8893 122.39V110.676C55.4821 109.868 54.678 108.454 54.678 106.839C54.678 104.213 56.6882 102.194 59.3015 102.194C61.9148 102.194 63.925 104.213 63.925 106.839C63.523 108.454 62.7189 109.868 61.3118 110.676Z" fill="#003694"/>
</svg>
