<svg width="250" height="208" viewBox="0 0 250 208" fill="none" xmlns="http://www.w3.org/2000/svg">
<path d="M234.412 52.6316C258.795 105.263 242.956 169.684 193.982 204" stroke="#003694" stroke-width="8" stroke-linecap="round" stroke-linejoin="round"/>
<path d="M223.575 63.579L223.992 34.1053L249 49.2632L223.575 63.579Z" fill="#003694"/>
<path d="M15.5882 155.368C-8.79499 102.737 7.04367 38.3158 56.0185 4" stroke="#F7CB15" stroke-width="8" stroke-linecap="round" stroke-linejoin="round"/>
<path d="M26.4252 144.421L26.0084 173.684L1 158.737L26.4252 144.421Z" fill="#F7CB15"/>
<path d="M176.763 79.9888H148.62V31.7207C148.62 19.8547 137.966 10 125.101 10C112.235 10 101.581 19.8547 101.581 31.9218V80.1899H73.4378C69.4174 80.1899 66 83.6089 66 87.6313V146.559C66 150.581 69.4174 154 73.4378 154H176.562C180.583 154 184 150.581 184 146.559V87.4302C184 83.4078 180.784 79.9888 176.763 79.9888ZM127.312 120.816V132.279C127.312 133.486 126.307 134.492 125.101 134.492C123.894 134.492 122.889 133.486 122.889 132.279V121.017C121.482 120.212 120.678 118.804 120.678 117.196C120.678 114.581 122.688 112.57 125.101 112.57C127.714 112.57 129.724 114.581 129.724 117.196C129.724 118.603 128.719 120.011 127.312 120.816ZM137.765 79.9888H112.436V31.7207C112.436 25.6872 118.065 20.8603 125.101 20.8603C132.136 20.8603 137.765 25.6872 137.765 31.7207V79.9888Z" fill="#003694"/>
<path d="M167.918 198H82.0818C73.2368 198 66 190.421 66 181.158V178.842C66 169.579 73.2368 162 82.0818 162H184V181.158C184 190.421 176.763 198 167.918 198Z" fill="#F7CB15"/>
<path d="M86.2549 180.928L79 179.897L80.9608 173.711L87.2353 177.423L85.8627 170H92.1373L90.7647 177.423L97.0392 173.711L99 179.897L91.7451 180.928L97.0392 186.082L91.9412 190L88.8039 182.99L85.6667 190L80.5686 186.082L86.2549 180.928Z" fill="#003694"/>
<path d="M110.184 180.928L103 179.897L104.942 173.711L111.155 177.423L109.99 170H116.204L114.845 177.423L121.058 173.711L123 179.897L115.816 180.928L121.058 186.082L116.01 190L112.903 182.99L109.796 190L104.748 186.082L110.184 180.928Z" fill="#003694"/>
<path d="M134.184 180.928L127 179.897L128.942 173.711L135.155 177.423L133.99 170H140.204L138.845 177.423L145.058 173.711L147 179.897L139.816 180.928L145.058 186.082L140.01 190L136.903 182.99L133.796 190L128.942 186.082L134.184 180.928Z" fill="#003694"/>
<path d="M158.184 180.928L151 179.897L152.942 173.711L159.155 177.423L157.99 170H164.204L162.845 177.423L169.058 173.711L171 179.897L163.816 180.928L169.058 186.082L164.01 190L160.903 182.99L157.796 190L152.748 186.082L158.184 180.928Z" fill="#003694"/>
</svg>
