<svg width="19" height="22" viewBox="0 0 19 22" fill="none" xmlns="http://www.w3.org/2000/svg">
<path d="M7 10.8V4C7 2.8 8.1 1.7 9.5 1.7C10.9 1.7 12 2.7 12 4V10.8" stroke="#001427" stroke-width="1.5" stroke-miterlimit="10" stroke-linejoin="bevel"/>
<path d="M16.5 20.8H2.5C1.9 20.8 1.5 20.4 1.5 19.8V11.8C1.5 11.2 1.9 10.8 2.5 10.8H16.5C17.1 10.8 17.5 11.2 17.5 11.8V19.8C17.5 20.3 17.1 20.8 16.5 20.8Z" stroke="#001427" stroke-width="1.5" stroke-miterlimit="10"/>
<path d="M10.2 15.8C10.2 16 10.1 16.2 9.9 16.3V17.9C9.9 18.1 9.8 18.2 9.6 18.2C9.4 18.2 9.3 18.1 9.3 17.9V16.3C9.1 16.2 9 16 9 15.8C9 15.5 9.3 15.2 9.6 15.2C9.9 15.1 10.2 15.4 10.2 15.8Z" fill="#001427"/>
</svg>
