<svg width="22" height="19" viewBox="0 0 22 19" fill="none" xmlns="http://www.w3.org/2000/svg">
<path d="M19.8 17.3H1.80005C1.30005 17.3 0.800049 16.9 0.800049 16.3V2.3C0.800049 1.8 1.20005 1.3 1.80005 1.3H19.8C20.3 1.3 20.8 1.7 20.8 2.3V16.3C20.8 16.8 20.4 17.3 19.8 17.3Z" stroke="#001427" stroke-width="1.5" stroke-miterlimit="10"/>
<path d="M8.00004 14.8C5.00004 14.7 2.60004 12.3 2.60004 9.3C2.60004 6.3 5.10004 3.8 8.10004 3.8C11.1 3.8 13.6 6.3 13.6 9.3C13.6 10.7 13.1 12 12.2 13" stroke="#001427" stroke-miterlimit="10" stroke-linecap="round" stroke-linejoin="round"/>
<path d="M8.10002 12C9.59119 12 10.8 10.7912 10.8 9.3C10.8 7.80883 9.59119 6.6 8.10002 6.6C6.60886 6.6 5.40002 7.80883 5.40002 9.3C5.40002 10.7912 6.60886 12 8.10002 12Z" stroke="#001427" stroke-miterlimit="10" stroke-linecap="round" stroke-linejoin="round"/>
<path d="M12.2 12.9C11.9 13.2 11.6 13.3 11.2 13.3C10.4 13.3 9.80005 12.7 9.80005 11.9C9.80005 11.5 9.90005 11.2 10.2 11" stroke="#001427" stroke-miterlimit="10" stroke-linecap="round" stroke-linejoin="round"/>
<path d="M14.5001 6.5L20.1001 1.8" stroke="#001427" stroke-width="1.5" stroke-miterlimit="10" stroke-linecap="round" stroke-linejoin="round"/>
<path d="M3.60006 3.8L1.50006 2" stroke="#001427" stroke-width="1.5" stroke-miterlimit="10" stroke-linecap="round" stroke-linejoin="round"/>
</svg>
