<svg width="23" height="22" viewBox="0 0 23 22" fill="none" xmlns="http://www.w3.org/2000/svg">
<path d="M21.2 11L18.1 15L16.8 16.7C15.4 18.2 13.3 19.1 11.1 19.1C8.9 19.1 6.9 18.2 5.4 16.7L4.1 15L1 11L4.1 7L5.4 5.3C6.8 3.8 8.8 3 11.1 3C13.4 3 15.3 3.9 16.8 5.3L18.1 7L21.2 11Z" stroke="#001427" stroke-width="1.5" stroke-miterlimit="10"/>
<path d="M10.7 10.5L8.40001 8.2H8.30001C7.70001 8.8 7.20001 9.8 7.20001 11C7.20001 13.2 9.00001 15 11.2 15C12.3 15 13.3 14.5 14 13.8L10.7 10.5Z" stroke="#001427" stroke-width="1.5" stroke-miterlimit="10"/>
<path d="M10.7 10.5C10.4 10.8 9.99999 11 9.49999 11C8.59999 11 7.89999 10.3 7.89999 9.4C7.89999 8.9 8.09999 8.5 8.39999 8.2L10.7 10.5Z" stroke="#001427" stroke-width="1.5" stroke-miterlimit="10"/>
<path d="M1.20001 1L21.2 21" stroke="#001427" stroke-width="1.5" stroke-miterlimit="10" stroke-linecap="round"/>
</svg>
