<svg width="23" height="18" viewBox="0 0 23 18" fill="none" xmlns="http://www.w3.org/2000/svg">
<path d="M21.8 9.1L18.6999 13.1L17.4 14.8C16 16.3 13.8999 17.2 11.6999 17.2C9.49995 17.2 7.49995 16.3 5.99995 14.8L4.79995 13L1.69995 9L4.79995 5L6.09995 3.3C7.49995 1.8 9.49995 1 11.8 1C14.1 1 16 2 17.4 3.4L18.6999 5.1L21.8 9.1Z" stroke="#001427" stroke-width="1.5" stroke-miterlimit="10"/>
<path d="M11.8001 13.1C14.0092 13.1 15.8001 11.3091 15.8001 9.1C15.8001 6.89086 14.0092 5.1 11.8001 5.1C9.59091 5.1 7.80005 6.89086 7.80005 9.1C7.80005 11.3091 9.59091 13.1 11.8001 13.1Z" stroke="#001427" stroke-width="1.5" stroke-miterlimit="10"/>
<path d="M10.1 9C10.9837 9 11.7 8.28365 11.7 7.4C11.7 6.51634 10.9837 5.8 10.1 5.8C9.21634 5.8 8.5 6.51634 8.5 7.4C8.5 8.28365 9.21634 9 10.1 9Z" stroke="#001427" stroke-width="1.5" stroke-miterlimit="10"/>
</svg>
