<svg width="18" height="19" viewBox="0 0 18 19" fill="none" xmlns="http://www.w3.org/2000/svg">
<path d="M16.9394 13.3C17.1394 13.6 17.1394 14.1 16.8394 14.4C14.9394 16.6 12.1394 17.9 9.03939 17.9C5.93939 17.9 3.13939 16.5 1.23939 14.4C0.939387 14.1 0.939388 13.6 1.13939 13.3C2.73939 10.7 5.63939 8.89999 9.03939 8.89999C12.4394 8.89999 15.3394 10.7 16.9394 13.3Z" stroke="#001427" stroke-width="1.5" stroke-miterlimit="10" stroke-linecap="round" stroke-linejoin="round"/>
<path d="M9.13937 7C10.8514 7 12.2394 5.65685 12.2394 4C12.2394 2.34315 10.8514 1 9.13937 1C7.42728 1 6.03937 2.34315 6.03937 4C6.03937 5.65685 7.42728 7 9.13937 7Z" stroke="#001427" stroke-width="1.5" stroke-miterlimit="10" stroke-linejoin="round"/>
</svg>
