<svg width="18" height="18" viewBox="0 0 18 18" fill="none" xmlns="http://www.w3.org/2000/svg">
<path fill-rule="evenodd" clip-rule="evenodd" d="M0.25 5.00006C0.25 2.37671 2.37665 0.250061 5 0.250061H13C15.6234 0.250061 17.75 2.37671 17.75 5.00006V13.0001C17.75 15.6234 15.6234 17.7501 13 17.7501H5C2.37665 17.7501 0.25 15.6234 0.25 13.0001V5.00006ZM5 1.75006C3.20507 1.75006 1.75 3.20514 1.75 5.00006V13.0001C1.75 14.795 3.20507 16.2501 5 16.2501H13C14.7949 16.2501 16.25 14.795 16.25 13.0001V5.00006C16.25 3.20514 14.7949 1.75006 13 1.75006H5Z" fill="black"/>
</svg>
