<svg width="56" height="51" viewBox="0 0 56 51" fill="none" xmlns="http://www.w3.org/2000/svg">
<path d="M18.2 43.6625L11.4625 50.4C4.4625 45.325 0 37.1 0 27.825C0 23.45 0.962499 19.3375 2.7125 15.6625L8.225 21.175L9.975 22.925C9.5375 24.5 9.3625 26.075 9.3625 27.7375C9.3625 34.475 12.8625 40.3375 18.2 43.6625Z" fill="#F7CB15"/>
<path d="M56.0001 27.7375C56.0001 37.0125 51.4501 45.2375 44.5376 50.3125L37.8001 43.575C43.1376 40.25 46.6376 34.3875 46.6376 27.65C46.6376 24.0625 45.5876 20.65 43.8376 17.7625C41.8251 14.525 38.8501 11.9875 35.2626 10.4125L42.1751 3.5C50.4876 8.4875 56.0001 17.5 56.0001 27.7375Z" fill="#F7CB15"/>
<path d="M41.2124 3.0625C41.2124 3.0625 17.3249 26.95 17.2374 27.0375C17.0624 27.2125 16.7999 27.3 16.4499 27.3C16.1874 27.3 15.9249 27.2125 15.6624 27.0375L3.23743 14.6125C4.54993 12.1625 6.21243 9.975 8.13743 8.05L8.22493 7.9625L8.31243 7.875C8.48743 7.7 8.74993 7.6125 9.09993 7.6125C9.44993 7.6125 9.71243 7.7 9.88743 7.9625L19.1624 17.2375C19.2499 17.2375 19.2499 17.325 19.3374 17.325C19.4249 17.325 19.4249 17.325 19.5124 17.2375C19.5124 17.2375 19.5999 17.2375 19.5999 17.15C19.5999 17.0625 19.6874 17.0625 19.6874 16.975C19.6874 16.8875 19.6874 16.8875 19.5999 16.8C19.5999 16.8 19.5999 16.7125 19.5124 16.7125L17.1499 14.35C17.0624 14.2625 17.0624 14.2625 17.0624 14.175C17.0624 14.0875 17.0624 14.0875 17.1499 14L30.7124 0.35C30.8874 0.0875 31.2374 0 31.5874 0C31.6749 0 31.7624 0 31.8499 0C35.1749 0.4375 38.3249 1.4875 41.2124 3.0625Z" fill="#003694"/>
</svg>
