<svg width="30" height="25" viewBox="0 0 30 25" fill="none" xmlns="http://www.w3.org/2000/svg">
<path d="M9.13338 0.400024C8.33338 0.400024 7.80005 0.933358 7.80005 1.73336V5.20002C7.80005 6.00002 8.33338 6.53336 9.13338 6.53336C9.93338 6.53336 10.4667 6.00002 10.4667 5.20002V1.73336C10.4667 1.06669 9.93338 0.400024 9.13338 0.400024Z" fill="#003694"/>
<path d="M20.8668 0.400024C20.0668 0.400024 19.5334 0.933358 19.5334 1.73336V5.20002C19.5334 6.00002 20.0668 6.53336 20.8668 6.53336C21.6668 6.53336 22.2001 6.00002 22.2001 5.20002V1.73336C22.2001 1.06669 21.6668 0.400024 20.8668 0.400024Z" fill="#003694"/>
<path d="M11.8 3.46667H18.2" stroke="#003694" stroke-width="1.5" stroke-miterlimit="10"/>
<path d="M23.5334 3.46667H27.0001C27.8001 3.46667 28.3334 4.13334 28.3334 4.80001V21.7333C28.3334 22.4 27.8001 23.0667 27.0001 23.0667H3.00008C2.20008 23.0667 1.66675 22.4 1.66675 21.7333V4.80001C1.66675 4.13334 2.20008 3.46667 3.00008 3.46667H6.46675" stroke="#003694" stroke-width="2" stroke-miterlimit="10"/>
<path d="M16.3336 20H13.6669C13.2669 20 13.0002 19.7333 13.0002 19.3333V16.6667C13.0002 16.2667 13.2669 16 13.6669 16H16.3336C16.7336 16 17.0002 16.2667 17.0002 16.6667V19.3333C17.0002 19.7333 16.7336 20 16.3336 20Z" stroke="#003694" stroke-miterlimit="10"/>
<path d="M7.66683 20H5.00016C4.60016 20 4.3335 19.7333 4.3335 19.3333V16.6667C4.3335 16.2667 4.60016 16 5.00016 16H7.66683C8.06683 16 8.3335 16.4 8.3335 16.6667V19.3333C8.3335 19.7333 8.06683 20 7.66683 20Z" stroke="#003694" stroke-miterlimit="10"/>
<path d="M25.0001 20H22.3334C21.9334 20 21.6667 19.7333 21.6667 19.3333V16.6667C21.6667 16.2667 21.9334 16 22.3334 16H25.0001C25.4001 16 25.6667 16.2667 25.6667 16.6667V19.3333C25.6667 19.7333 25.4001 20 25.0001 20Z" stroke="#003694" stroke-miterlimit="10"/>
<path d="M16.3336 13.3334H13.6669C13.2669 13.3334 13.0002 13.0667 13.0002 12.6667V10C13.0002 9.60004 13.2669 9.33337 13.6669 9.33337H16.3336C16.7336 9.33337 17.0002 9.60004 17.0002 10V12.6667C17.0002 13.0667 16.7336 13.3334 16.3336 13.3334Z" stroke="#003694" stroke-miterlimit="10"/>
<path d="M7.66683 13.3334H5.00016C4.60016 13.3334 4.3335 13.0667 4.3335 12.6667V10C4.3335 9.60004 4.60016 9.33337 5.00016 9.33337H7.66683C8.06683 9.33337 8.3335 9.60004 8.3335 10V12.6667C8.3335 13.0667 8.06683 13.3334 7.66683 13.3334Z" stroke="#003694" stroke-miterlimit="10"/>
<path d="M22.7334 11.0667L23.6667 12.4L26.3334 9.46667" stroke="#003694" stroke-miterlimit="10" stroke-linecap="round" stroke-linejoin="round"/>
<path d="M25.0001 9.33337H22.3334C21.9334 9.33337 21.6667 9.60004 21.6667 10V12.6667C21.6667 13.0667 21.9334 13.3334 22.3334 13.3334H25.0001C25.4001 13.3334 25.6667 13.0667 25.6667 12.6667V11.4667" stroke="#003694" stroke-miterlimit="10" stroke-linecap="round"/>
</svg>
