<svg width="30" height="30" viewBox="0 0 30 30" fill="none" xmlns="http://www.w3.org/2000/svg">
<path d="M20.0667 1.66675H10.0667C9.66675 1.66675 9.40008 1.80009 9.13341 2.06675L2.06675 9.13342C1.80008 9.40009 1.66675 9.66675 1.66675 10.0668V20.0668C1.66675 20.4668 1.80008 20.7334 2.06675 21.0001L9.13341 28.0668C9.40008 28.3334 9.66675 28.4668 10.0667 28.4668H20.0667C20.4667 28.4668 20.7334 28.3334 21.0001 28.0668L28.0667 21.0001C28.3334 20.7334 28.4668 20.4668 28.4668 20.0668V10.0668C28.4668 9.66675 28.3334 9.40009 28.0667 9.13342L21.0001 2.06675C20.7334 1.93342 20.4667 1.66675 20.0667 1.66675Z" stroke="#003694" stroke-width="2" stroke-miterlimit="10"/>
<path d="M15.1335 21.6668C18.8154 21.6668 21.8001 18.6821 21.8001 15.0002C21.8001 11.3183 18.8154 8.3335 15.1335 8.3335C11.4516 8.3335 8.4668 11.3183 8.4668 15.0002C8.4668 18.6821 11.4516 21.6668 15.1335 21.6668Z" stroke="#003694" stroke-width="2" stroke-miterlimit="10"/>
</svg>
