<svg width="27" height="27" viewBox="0 0 27 27" fill="none" xmlns="http://www.w3.org/2000/svg">
<path d="M10.4666 12.2668H2.46663C1.79997 12.2668 1.1333 11.7334 1.1333 10.9334V2.93343C1.1333 2.26676 1.66663 1.6001 2.46663 1.6001H10.4666C11.1333 1.6001 11.8 2.13343 11.8 2.93343V10.9334C11.8 11.6001 11.1333 12.2668 10.4666 12.2668Z" stroke="#003694" stroke-width="2" stroke-miterlimit="10"/>
<path d="M23.7999 12.2668H15.7999C15.1332 12.2668 14.4666 11.7334 14.4666 10.9334V2.93343C14.4666 2.26676 14.9999 1.6001 15.7999 1.6001H23.7999C24.4666 1.6001 25.1332 2.13343 25.1332 2.93343V10.9334C25.1332 11.6001 24.4666 12.2668 23.7999 12.2668Z" stroke="#003694" stroke-width="2" stroke-miterlimit="10"/>
<path d="M23.7999 25.6H15.7999C15.1332 25.6 14.4666 25.0667 14.4666 24.2667V16.2667C14.4666 15.6 14.9999 14.9333 15.7999 14.9333H23.7999C24.4666 14.9333 25.1332 15.4667 25.1332 16.2667V24.2667C25.1332 24.9333 24.4666 25.6 23.7999 25.6Z" stroke="#003694" stroke-width="2" stroke-miterlimit="10"/>
<path d="M10.4666 25.6H2.46663C1.79997 25.6 1.1333 25.0667 1.1333 24.2667V16.2667C1.1333 15.6 1.66663 14.9333 2.46663 14.9333H10.4666C11.1333 14.9333 11.8 15.4667 11.8 16.2667V24.2667C11.8 24.9333 11.1333 25.6 10.4666 25.6Z" stroke="#003694" stroke-width="2" stroke-miterlimit="10"/>
</svg>
