<svg width="27" height="27" viewBox="0 0 27 27" fill="none" xmlns="http://www.w3.org/2000/svg">
<path d="M13.1334 3.99989C13.1334 4.13322 13.1334 4.26654 13.1334 4.39987C13.1334 4.39987 9.26675 3.99989 10.0667 2.13323C10.0667 2.13323 11.5334 1.99988 12.4667 2.53321C12.0667 3.19988 12.6001 3.99989 12.6001 3.99989C12.7334 4.13322 13.0001 4.13322 13.1334 3.99989Z" stroke="#003694" stroke-miterlimit="10" stroke-linecap="round" stroke-linejoin="round"/>
<path d="M13.1333 3.99992C13 3.99992 12.7333 3.99992 12.4667 3.99992C12.4667 3.99992 11.9333 3.19991 12.3333 2.53324C12.6 1.99991 13.4 1.59992 15.1333 1.33325C15.1333 1.46659 18.0667 3.59992 13.1333 3.99992Z" stroke="#003694" stroke-miterlimit="10" stroke-linecap="round" stroke-linejoin="round"/>
<path d="M25.1333 13.5999C25.1333 19.4666 19.8 25.4666 13.1333 25.4666C6.46663 25.4666 1.1333 19.4666 1.1333 13.5999C1.1333 7.73327 6.46663 4.3999 13.1333 4.3999C19.6666 4.3999 25.1333 7.8666 25.1333 13.5999Z" stroke="#003694" stroke-width="2" stroke-miterlimit="10" stroke-linecap="round" stroke-linejoin="round"/>
<path d="M1.2666 12.7998C1.2666 12.7998 9.6666 16.3998 25.1333 12.7998" stroke="#003694" stroke-width="2" stroke-miterlimit="10" stroke-linecap="round" stroke-linejoin="round"/>
<path d="M4.06663 13.5999C4.06663 13.5999 3.26663 15.7332 4.59996 17.3332" stroke="#003694" stroke-width="2" stroke-miterlimit="10" stroke-linecap="round" stroke-linejoin="round"/>
<path d="M21.2666 13.5999C21.2666 13.5999 22.0666 15.8665 21.2666 17.1998" stroke="#003694" stroke-width="2" stroke-miterlimit="10" stroke-linecap="round" stroke-linejoin="round"/>
<path d="M12.8667 14.3999V17.3333" stroke="#003694" stroke-width="2" stroke-miterlimit="10" stroke-linecap="round" stroke-linejoin="round"/>
</svg>
